<?xml version="1.0" encoding="utf-8"?>
<!-- Generator: Adobe Illustrator 15.0.0, SVG Export Plug-In . SVG Version: 6.00 Build 0)  -->
<!DOCTYPE svg PUBLIC "-//W3C//DTD SVG 1.1//EN" "http://www.w3.org/Graphics/SVG/1.1/DTD/svg11.dtd">
<svg version="1.1" id="Layer_1" xmlns="http://www.w3.org/2000/svg" xmlns:xlink="http://www.w3.org/1999/xlink" x="0px" y="0px"
	 width="475.169px" height="389.702px" viewBox="0 0 475.169 389.702" enable-background="new 0 0 475.169 389.702"
	 xml:space="preserve">
<rect y="0" fill="#FDD523" width="475.169" height="389.702"/>
<path fill="#2E0E0A" d="M151.312,0.083c0,0-36.685,44.756,24.212,58.696s48.058-25.679,112.99-24.212s111.891,60.164,121.795,95.381
	c0,0,64.859,25.312,64.859,81.073s-82.47,151.876-90.173,152.243l-1.467,23.845h-21.645c0,0-6.237-127.298-25.68-130.6
	s-6.967,49.524-208.371,12.84c0,0-6.233,0.367,0,117.76h-12.109v-25.68c0,0-45.084,8.521-78.331-51.614
	c-0.551-0.996-1.099-2.012-1.643-3.046c-33.383-63.465,0-74.677,0-74.677S-66.708,112.567,75.279,9.086l-4.011,16.846
	C71.268,25.932,119.853-1.701,151.312,0.083z"/>
<path fill="#2E0E0A" d="M124.646,318.317c0,0,57.307-8.617,76.122-3.591s27.719,6.75,37.773,6.463s35.333-3.447,37.201-5.745
	s54.435-3.735,79.713,2.872v14.938c0,0-5.313,1.436-6.75,5.026c0,0,1.724,37.632-19.82,46.68s-54.004,5.171-67.936-14.075
	s-9.116-32.748-20.932-33.609s-8.08,18.24-21.007,33.178s-21.401,17.635-41.221,19.157c0,0-30.424,2.543-41.077-19.16
	c0,0-5.602-15.654-5.458-32.171c0,0-2.443-4.309-6.608-4.309V318.317z"/>
<path fill="#FDD523" d="M144.873,326.907c0,0,33.021-19.348,72.234,1.548c0,0,12.125,10.576-4.127,38.954
	c0,0-22.444,28.636-58.303,11.867C154.676,379.276,132.748,371.795,144.873,326.907z"/>
<path fill="#FDD523" d="M334.782,327.002c0,0-33.021-19.348-72.233,1.548c0,0-12.125,10.576,4.127,38.954
	c0,0,22.445,28.636,58.304,11.867C324.979,379.372,346.907,371.891,334.782,327.002z"/>
</svg>
